<svg width="89" height="89" viewBox="0 0 89 89" fill="none" xmlns="http://www.w3.org/2000/svg"><g clip-path="url(#clip0_132_1139)"><path d="M70.999 47.6a25.598 25.598 0 00-11.392-2.662 17.223 17.223 0 016.917-1.86c.287.003.57-.058.83-.178.597-.312.829-1.005.696-1.904-.547-3.242-3.765-5.81-7.464-6.021-3.06-.187-6.39 1.166-9.123 3.67l-.15.146a50.638 50.638 0 013.285-6.71l.178-.307c.892-1.568 1.904-3.339 1.593-5.268a.577.577 0 00-.299-.405.592.592 0 00-.522 0 23.55 23.55 0 00-9.015 7.03c0-.13-.025-.255-.042-.405-.157-1.382-.344-2.76-.551-4.133a5.756 5.756 0 00-.585-2.026.93.93 0 00-.366-.421.962.962 0 00-.546-.142 1 1 0 00-.66.357 10.717 10.717 0 00-1.92 2.876l-.414-.737a.582.582 0 00-.786-.222.63.63 0 00-.222.194 12.475 12.475 0 00-1.717 4.136c-.12-.19-.244-.376-.369-.563a50.07 50.07 0 00-4.296-5.239 1.222 1.222 0 00-.717-.445.946.946 0 00-.796.259 1.609 1.609 0 00-.315 1.398c.717 3.646 1.617 7.743 3.197 11.616-3.388-2.783-7.34-4.862-11.13-6.782-.718-.361-1.298-.361-1.713 0a1.37 1.37 0 00-.415.85c-.29 1.978.933 3.744 2.17 5.207 2.015 2.395 5.091 5.077 7.463 7.022-4.005-1.102-8.58-1.487-13.941-1.171-1.576.093-2.517.611-2.795 1.54-.373 1.243.664 2.353 2.774 2.97 2.633.77 5.155 2.025 7.589 3.24 1.712.856 3.479 1.735 5.295 2.456a35.145 35.145 0 006.137 1.803c.814.15 1.64.227 2.468.227 1.824 0 3.732-.385 4.395-1.564a1.87 1.87 0 00.183-.478 6.762 6.762 0 003.226.737c.27 0 .547 0 .83-.036 2.297-.203 4.44-1.046 6.514-1.864.895-.352 1.82-.717 2.737-1.021a25.67 25.67 0 0114.886-.312c.29.081 1.054.3 1.556-.227.194-.214.309-.487.323-.774.162-1.446-.904-2.816-2.981-3.857zm1.741 3.08c-2.932-1.24-6.469-1.662-10.28-1.216-3.632.441-7.186 1.62-10.483 2.804h-.054c-2.131.773-4.329 1.563-6.502 1.369.27-.074.537-.163.797-.267 2.185-.22 4.81-1.37 7.576-2.581 2.517-1.11 5.12-2.253 7.397-2.654 1.52-.25 3.06-.352 4.6-.304a14.177 14.177 0 014.32.595c.12.053.236.106.353.167.754.397 1.944 1.138 2.276 2.086zm-4.176-2.906a19.16 19.16 0 00-2.77-.206 23.897 23.897 0 00-4.652.312c-2.314.405-4.935 1.555-7.465 2.67-2.326 1.02-4.56 1.997-6.48 2.402a28.341 28.341 0 003.632-2.354l.924-.668c1.808-1.293 3.641-2.602 5.536-3.728 3.833-.368 7.7.17 11.275 1.572zm-16.296-8.286c2.488-2.289 5.523-3.529 8.26-3.363 3.135.175 5.938 2.399 6.394 5.061.062.377 0 .656-.091.705a1.146 1.146 0 01-.365.04c-5.805.211-10.698 3.7-15.413 7.075l-.933.672c-1.431 1.05-4.782 3.493-6.312 2.926-.174-.069-.224-.15-.244-.227-.282-.916 1.575-3.428 2.371-4.502.295-.405.535-.725.672-.944 1.647-2.613 3.347-5.32 5.66-7.435v-.008zM41.07 50.505a20.69 20.69 0 00-3.056-4.096c-.83-.9-1.741-1.747-2.55-2.492-3.674-3.387-7.05-6.438-10.238-9.32 3.599 1.848 7.26 3.919 10.313 6.634 3.317 2.97 5.577 6.482 6.427 10.04a20.443 20.443 0 00-.879-.758l-.017-.008zm13.714-21.324a54.491 54.491 0 00-4.383 6.519c-2.074 3.646-3.733 7.56-5.337 11.373l-.096.13c-.414.535-.78 1.061-1.123 1.572.262-1.433.61-2.85 1.04-4.242 1.133-3.517 3.198-6.738 5.254-9.696 1.634-2.342 3.363-4.668 5.047-6.925-.08.439-.209.867-.386 1.277l-.016-.008zm-1.244 2.35c-1.489 2.63-3.293 6.049-4.147 9.266a47.056 47.056 0 00-3.529 5.049 92.22 92.22 0 014.765-10.004 53.265 53.265 0 013.458-5.308l-.386.685-.161.312zm1.492-3.943c-1.725 2.31-3.495 4.688-5.162 7.083-2.074 2.978-4.147 6.22-5.296 9.773a42.413 42.413 0 00-1.169 4.987c-.187.3-.352.592-.502.876a17.924 17.924 0 00-.253-.81.504.504 0 000-.159 23.229 23.229 0 011.659-10.186 22.854 22.854 0 011.538-3.083 22.487 22.487 0 019.198-8.473l-.013-.008zm-10.62-.23c.17.452.282.923.337 1.401.207 1.35.39 2.715.547 4.093a4.806 4.806 0 01-.033 1.912.431.431 0 000 .105c-.129.203-.262.406-.386.62-.124.215-.257.438-.381.657a12.639 12.639 0 00-.639-2.727 20.929 20.929 0 00-1.281-2.857 9.826 9.826 0 011.866-3.197l-.03-.008zm-1.658 6.433a9.428 9.428 0 01.506 4.952 24.717 24.717 0 00-.954 2.86 27.077 27.077 0 00-.48-2.026 13.055 13.055 0 00-.449-3.76 34.244 34.244 0 01-.236-1.134 20.932 20.932 0 01-.349-4.522c.042-.077.08-.154.117-.23a24.274 24.274 0 011.853 3.869l-.008-.008zm-2.264-2.957c-.003 1.311.12 2.62.365 3.91.07.38.153.761.236 1.142.22.9.37 1.814.448 2.735a25.923 25.923 0 00-1.895-4.432c.114-1.151.402-2.279.854-3.347l-.008-.008zm-7.124-3.051a48.202 48.202 0 013.993 4.89c.415.588.771 1.216 1.12 1.823a.58.58 0 00.12.215 24.805 24.805 0 012.986 10.786v.02c-.046.438-.08.875-.096 1.309a22.877 22.877 0 00-3.919-5.243c-2.251-4.42-3.354-9.436-4.213-13.776l.009-.024zm-10.023 5.94c.146.023.286.07.415.142l.472.238a928.5 928.5 0 0111.051 10.02c.83.746 1.721 1.585 2.538 2.476a21.53 21.53 0 012.654 3.42c-.414-.316-.83-.612-1.269-.887-.22-.231-.44-.466-.65-.701-.212-.235-.415-.483-.656-.714-1.02-1.073-2.144-2.026-3.23-2.99l-5.627-4.862c-2.074-1.79-4.21-3.647-5.694-5.976-.008-.098.004-.142.004-.158l-.008-.008zm1.887 4.457c-.958-1.139-1.912-2.468-1.937-3.837 1.493 2.224 3.546 4.01 5.54 5.737l5.627 4.862c1.083.94 2.202 1.904 3.21 2.97l.61.664a25.101 25.101 0 00-3.256-1.572c-2.06-1.584-6.991-5.506-9.786-8.82l-.008-.004zm-7.299 7.726a60.203 60.203 0 013.467-.105 36.64 36.64 0 0111.196 1.56c2.596.81 6.266 2.403 8.999 5.198.346.343.648.725.9 1.139.02.085.06.164.116.23.087.184.135.382.14.584a3.683 3.683 0 01-1.417-.364 26.184 26.184 0 01-2.584-1.386 13.884 13.884 0 00-6.809-2.431l-.385-.053c-3.081-.43-6.183-1.053-9.177-1.657-1.3-.229-2.58-.55-3.832-.96-.68-.248-1.617-.66-2.073-1.43a3.13 3.13 0 011.468-.32l-.008-.005zM37.09 55.63a33.94 33.94 0 01-5.922-1.738c-1.77-.705-3.517-1.576-5.204-2.43-2.488-1.24-5.051-2.521-7.792-3.32-.228-.068-2.24-.68-1.978-1.551a.477.477 0 01.079-.15c.522.81 1.493 1.24 2.202 1.491 1.264.416 2.557.743 3.869.977 3.002.6 6.104 1.215 9.197 1.657l.386.052a18.8 18.8 0 013.164.624 18.28 18.28 0 013.533 1.747c.844.518 1.72.988 2.62 1.406.46.228.962.365 1.477.405a.397.397 0 01-.025.065c-.506.911-3.114 1.268-5.598.782l-.008-.017zm35.724-4.298a.422.422 0 000 .08 1.596 1.596 0 01-.37-.068 26.829 26.829 0 00-15.591.328 54.74 54.74 0 00-2.803 1.045c-2.074.81-4.056 1.597-6.179 1.783-.738.065-2.355.085-3.579-.68h.229a7.558 7.558 0 001.588.166c1.994 0 3.98-.722 5.913-1.419l.054-.02c3.28-1.187 6.813-2.346 10.416-2.783 3.84-.47 7.402-.029 10.318 1.256.014.108.019.218.012.328l-.008-.016z" fill="#678EC9" fill-opacity=".8"/></g><defs><clipPath id="clip0_132_1139"><path fill="#fff" transform="translate(15 26)" d="M0 0h59v31H0z"/></clipPath></defs></svg>