<svg width="89" height="89" viewBox="0 0 89 89" fill="none" xmlns="http://www.w3.org/2000/svg"><g clip-path="url(#clip0_132_1128)"><path fill-rule="evenodd" clip-rule="evenodd" d="M32.837 59.691a15.997 15.997 0 003.171 1.644c1.481.502 4.715.633 6.693-.452.412-.22.778-.517 1.078-.877.131 2.81.627 5.589 1.475 8.266.507 1.605 1.39 3.932 3.087 5.59a.49.49 0 00.352.138.482.482 0 00.344-.156.519.519 0 00.076-.102.51.51 0 00-.094-.605c-1.189-1.16-2.062-2.754-2.83-5.172a32.074 32.074 0 01-.82-3.183c.089.13.198.243.323.336 2.455 1.839 5.254-5.936 5.365-7.45a.287.287 0 00-.032-.187c-.083-.12-.267-.039-.382.046-.859.65-5.118 4.063-5.459 6.276a31.003 31.003 0 01-.431-3.956 38.847 38.847 0 01.083-4.406c.348.325.911.598 1.916.439 2.465-.393 4.705-2.033 6.151-3.338 2.086-1.892 3.735-4.243 5.236-6.492.81-1.216 1.638-2.474 2.361-3.811a21.788 21.788 0 001.391-3.104.94.94 0 00-.121-1.022.92.92 0 00-.984-.177 24.741 24.741 0 00-6.91 3.274 26.565 26.565 0 00-8.504 9.423c.102-.73.209-1.46.315-2.182l.081-.558.015-.103c.27-1.82.549-3.698.747-5.554.216-1.96.3-3.933.253-5.905l.133.042c.726.198 1.564-.282 2.183-1.248a55.347 55.347 0 002.07-3.493 55.664 55.664 0 005.608-15.387.498.498 0 00-.066-.372.947.947 0 00-.762-.456c-.56-.035-1.165.393-1.512.828a44.534 44.534 0 00-6.697 11.667 37.56 37.56 0 01-.452 1.1 32.717 32.717 0 00-.995 2.567 19.453 19.453 0 00-2.639-6.909c-2.043-3.212-5.163-5.638-7.92-7.781l-.032-.026a.49.49 0 00-.775.273c-1.774 6.919 1.992 14.963 8.386 17.93.696.32 1.582.65 2.459.43.099 2.208.024 4.42-.223 6.616a110.02 110.02 0 01-.464 3.622l-.075.536a8.327 8.327 0 01-.111-.273c-.188-.488-.335-.99-.483-1.494-.213-.727-.427-1.455-.762-2.14-.95-1.924-2.782-3.285-4.732-4.087-1.95-.803-4.082-1.114-6.179-1.415l-5.264-.764c-.38.959.174 2.03.81 2.83 1.52 1.922 3.592 3.309 5.744 4.447a36.184 36.184 0 008.303 3.164c.71.221 1.44.376 2.177.464.13.007.26.007.39 0a51.21 51.21 0 01-.054.365l-.054.367a88.866 88.866 0 00-1.005 8.839 9.484 9.484 0 00-1.575-1.881 9.409 9.409 0 00-4.416-2.313c-3.8-.813-7.538.612-10.004 1.949a1.392 1.392 0 00-.775.83c-.094.372-.024.927.845 1.464l4.972 3.07zm15.438-25.103c-.403.63-.862.89-1.109.824a.346.346 0 01-.108-.071 111.228 111.228 0 016.547-14.143l.136-.244.044-.081c.758-1.388 1.53-2.803 1.848-4.36l.093-.053a54.594 54.594 0 01-7.45 18.117v.01zm-.08-5.17c.17-.406.327-.784.46-1.124a43.644 43.644 0 016.546-11.42c.041-.052.086-.101.136-.145-.346 1.434-1.082 2.77-1.798 4.066l-.014.025-.135.244a111.674 111.674 0 00-6.499 14.012 2.04 2.04 0 01-.125-.644c-.08-1.344.703-3.247 1.35-4.82l.08-.193zm-5.368-4.19a18.454 18.454 0 012.507 6.567 477.002 477.002 0 01-5.894-10.533 20.599 20.599 0 013.387 3.967zm-3.943-4.475a477.084 477.084 0 006.564 11.738c.063.4.122.81.167 1.227a32.237 32.237 0 00-2.844-4.437c-.348-.492-.695-.98-1.043-1.453-.67-.977-1.267-2.038-1.845-3.062l-.068-.12v-.001a60.258 60.258 0 00-1.293-2.223c-.873-1.415-1.874-2.755-2.858-4.067 0-.049.012-.1.023-.15l.015-.069c1.085.849 2.16 1.704 3.182 2.617zm-3.265-2.047c.931 1.24 1.877 2.524 2.705 3.857.405.65.788 1.327 1.16 1.988l.13.229.063.112c.578 1.026 1.179 2.09 1.86 3.07.327.474.678.962 1.043 1.457 1.175 1.63 2.378 3.305 3.13 5.06a1.417 1.417 0 01-.474.084 33.635 33.635 0 01-3.89-3.345 21.753 21.753 0 01-3.478-4.387c-1.043-1.768-1.72-3.748-2.367-5.682a13.84 13.84 0 01.118-2.444zm-.077 3.422a27.058 27.058 0 002.086 4.844 22.011 22.011 0 003.509 4.437 34.507 34.507 0 003.564 3.115 4.975 4.975 0 01-.98-.353c-4.556-2.115-7.66-6.983-8.179-12.043zM58.313 39.91c.216-.096.431-.184.647-.272-.591.848-1.092 1.69-1.572 2.514A27.97 27.97 0 0155 45.753l-.053.066c-2.011 2.48-4.089 5.042-6.48 7.221-.422.4-.92.706-1.465.898a4.074 4.074 0 01-1.696.22 2.254 2.254 0 010-.379 57.959 57.959 0 0113.007-13.87zm-.98 5.58c-1.464 2.191-3.067 4.486-5.077 6.303-1.345 1.217-3.418 2.744-5.643 3.094-.584.096-.97 0-1.15-.24a.68.68 0 01-.109-.227 4.334 4.334 0 001.761-.253 4.39 4.39 0 001.518-.942c2.342-2.125 4.361-4.608 6.326-7.022l.232-.286a28.19 28.19 0 002.406-3.638c.542-.92 1.099-1.86 1.784-2.804a22.915 22.915 0 011.55-.53c-.848 2.337-2.186 4.43-3.602 6.544h.004zm-2.89-3.444a24.356 24.356 0 012.862-1.666 58.363 58.363 0 00-11.92 12.824c.115-.498.288-.98.515-1.435.129-.255.258-.506.393-.757a25.577 25.577 0 018.147-8.967h.003zM31.638 53.843a16.706 16.706 0 0111.637 5.102 1.769 1.769 0 01-.219.371c-.744-.406-1.467-.87-2.17-1.326-1.276-.827-2.597-1.679-4.057-2.178-3.154-1.06-5.838-1.332-8.171-.806a18.6 18.6 0 012.882-1.191.125.125 0 00.094.028h.003zm-3.575 1.573c2.434-.728 5.282-.52 8.693.637 1.432.484 2.736 1.33 4.002 2.15l.023.015c.622.402 1.265.817 1.924 1.19-2.086.212-4.148-.237-5.911-.707a47.731 47.731 0 01-8.731-3.285zm14.169 4.597c-1.669.912-4.565.838-5.911.382a15.028 15.028 0 01-2.976-1.549l-4.392-2.715a47.803 47.803 0 007.754 2.828c1.805.481 3.912.93 6.03.707-.158.128-.327.24-.505.336v.01zm-4.631-6.644a8.43 8.43 0 013.946 2.076c1.342 1.262 2.027 2.475 1.826 3.253a16.996 16.996 0 00-11.2-5.07 11.514 11.514 0 015.428-.27v.011zm.624-14.497l.268.118c1.506.663 3.294 1.45 4.008 3.01.198.437.408.789.611 1.13.496.83.954 1.599 1.114 3.37C41.5 46 37.074 44.47 34.5 43a134.52 134.52 0 00-.455-.258c-1.578-.891-3.194-1.804-4.3-3.311a9.746 9.746 0 00-.372-.46c-.512-.61-1.11-1.32-.872-1.971l4.797.656c1.672.259 3.371.526 4.927 1.216zM46 64.5c1.671 1.152 4-5 4-5s.522-.964.5-1c-.043-.057-.425.266-.642.45a3.14 3.14 0 01-.142.117c-.618.43-5.419 4.257-3.716 5.433z" fill="#678EC9" fill-opacity=".8"/></g><defs><clipPath id="clip0_132_1128"><path fill="#fff" transform="translate(27 15)" d="M0 0h35v59H0z"/></clipPath></defs></svg>