<svg width="48" height="48" viewBox="0 0 48 48" fill="none" xmlns="http://www.w3.org/2000/svg"><path d="M34.04 29.527l-.126-.25c-.354-.826-4.702-2.077-5.056-2.102l-.278.025c-.53.1-1.112.576-2.25 1.551-.227.2-.53.25-.809.1-1.491-.825-3.311-2.477-4.221-3.477-.986-1.076-2.174-2.853-2.73-4.279-.102-.275 0-.575.202-.776 1.289-1.15 1.845-1.7 1.896-2.302.025-.35-.733-4.778-1.517-5.204l-.228-.15c-.505-.325-1.264-.8-2.098-.625-.202.05-.404.125-.581.225-.556.35-1.947 1.301-2.579 2.527-.379.776-.556 7.806 4.753 13.736 5.258 5.88 11.755 6.13 12.716 5.93h.025l.076-.025c1.314-.475 2.427-1.701 2.856-2.227.784-.925.253-2.051-.05-2.677z" fill="#fff"/></svg>