<svg width="89" height="89" viewBox="0 0 89 89" fill="none" xmlns="http://www.w3.org/2000/svg">
<g clip-path="url(#clip0_132_1128)">
<path fill-rule="evenodd" clip-rule="evenodd" d="M32.837 59.6911C33.8311 60.3567 34.8946 60.9081 36.0081 61.3352C37.4893 61.8373 40.723 61.9681 42.7014 60.8827C43.1128 60.6635 43.4787 60.3658 43.7793 60.0058C43.91 62.8154 44.4057 65.595 45.2536 68.2722C45.7612 69.8774 46.6444 72.2039 48.3412 73.8621C48.3879 73.9076 48.443 73.9432 48.5033 73.967C48.5636 73.9907 48.6279 74.0021 48.6925 74.0004C48.7572 73.9988 48.8208 73.9842 48.8799 73.9574C48.939 73.9306 48.9922 73.8922 49.0366 73.8445C49.0662 73.8136 49.0919 73.7792 49.1131 73.7419C49.1652 73.6447 49.1842 73.5327 49.1673 73.4234C49.1503 73.3141 49.0982 73.2135 49.0192 73.1373C47.8301 71.9776 46.9573 70.383 46.1889 67.9646C45.8613 66.9191 45.5874 65.857 45.3683 64.7825C45.4577 64.9114 45.5669 65.0248 45.6917 65.1184C48.1465 66.957 50.9455 59.182 51.0568 57.6687C51.0679 57.6045 51.0569 57.5382 51.0255 57.4813C50.9421 57.3611 50.7578 57.4424 50.643 57.5273C49.7842 58.1779 45.5248 61.5898 45.184 63.8031C44.9558 62.4953 44.8117 61.1736 44.7529 59.8467C44.6973 58.3778 44.7252 56.9069 44.8363 55.4412C45.184 55.7665 45.7473 56.0388 46.7522 55.8797C49.2174 55.4872 51.4566 53.8466 52.9031 52.542C54.9893 50.6504 56.6375 48.2992 58.1395 46.0505C58.9497 44.8342 59.7772 43.5755 60.5005 42.239C61.0438 41.2431 61.5089 40.2051 61.8913 39.1347C61.9726 38.9712 62.0045 38.7869 61.9828 38.605C61.9612 38.4231 61.887 38.2519 61.7696 38.1129C61.6394 37.9907 61.4775 37.9091 61.3031 37.8777C61.1286 37.8464 60.949 37.8666 60.7856 37.9361C58.3312 38.6608 56.001 39.7651 53.8767 41.2101C50.3335 43.6048 47.415 46.8382 45.3718 50.6327C45.4741 49.9022 45.5807 49.1738 45.6865 48.4513L45.6865 48.4509L45.7682 47.8926L45.7834 47.7901L45.7834 47.79C46.0534 45.9693 46.3317 44.0922 46.5297 42.2355C46.7456 40.2754 46.8304 38.3027 46.7835 36.3309L46.9156 36.3733C47.6423 36.5713 48.4803 36.0905 49.0992 35.1252C49.834 33.982 50.5236 32.8176 51.1681 31.632C53.7827 26.8165 55.6732 21.6298 56.7765 16.2447C56.7901 16.1814 56.7913 16.1161 56.7799 16.0524C56.7686 15.9886 56.745 15.9278 56.7105 15.8734C56.6301 15.7397 56.5186 15.6281 56.3858 15.5486C56.253 15.469 56.103 15.424 55.949 15.4173C55.3892 15.382 54.7842 15.8098 54.4365 16.2447C51.6314 19.7634 49.373 23.6983 47.7397 27.9124C47.611 28.2448 47.4546 28.6196 47.2877 29.012C46.94 29.8076 46.5923 30.695 46.2932 31.5789C45.8617 29.124 44.9654 26.7777 43.6541 24.6702C41.6108 21.4584 38.4911 19.0323 35.7348 16.8888L35.7021 16.8634C35.6375 16.8137 35.5618 16.7809 35.4817 16.7679C35.4016 16.755 35.3196 16.7623 35.243 16.7892C35.1664 16.8161 35.0974 16.8618 35.0423 16.9222C34.9871 16.9826 34.9474 17.056 34.9267 17.1357C33.1534 24.055 36.9191 32.0987 43.3134 35.0651C44.0088 35.3869 44.8955 35.7157 45.7717 35.4965C45.8706 37.7041 45.7962 39.9162 45.5491 42.1117C45.422 43.3153 45.2527 44.5297 45.0848 45.7338L45.0848 45.734L45.0102 46.2697C44.9754 46.1884 44.9372 46.0964 44.8989 45.9974C44.7113 45.5089 44.5638 45.0062 44.4162 44.5033L44.4162 44.5033C44.2028 43.776 43.9892 43.0484 43.6541 42.3628C42.7049 40.4393 40.8725 39.0781 38.9219 38.2755C36.9713 37.4729 34.8398 37.1618 32.7432 36.8612L27.4789 36.0975C27.0999 37.0557 27.6528 38.127 28.2891 38.9261C29.8085 40.8495 31.8809 42.2355 34.0332 43.374C36.6644 44.7674 39.4526 45.8301 42.3363 46.5384C43.0467 46.759 43.7752 46.914 44.513 47.0016C44.6427 47.009 44.7727 47.009 44.9024 47.0016C44.885 47.1236 44.8668 47.2455 44.8485 47.3675C44.8303 47.4895 44.812 47.6115 44.7946 47.7335C44.3124 50.6606 43.977 53.6108 43.7898 56.5727C43.3473 55.8788 42.8178 55.2465 42.2147 54.6917C40.9715 53.5348 39.447 52.7365 37.7988 52.3793C33.9984 51.5661 30.2605 52.991 27.7953 54.3275C27.6162 54.4034 27.4547 54.5165 27.3212 54.6595C27.1877 54.8026 27.085 54.9726 27.0199 55.1584C26.9261 55.5296 26.9956 56.0847 27.8649 56.6222L32.837 59.6911ZM48.2752 34.5878C47.8718 35.2171 47.4128 35.4788 47.166 35.4116C47.126 35.395 47.0895 35.3711 47.0582 35.3409C48.9092 30.4752 51.0971 25.7492 53.6055 21.1982L53.7411 20.9542L53.7855 20.8728C54.5433 19.4847 55.3154 18.0705 55.6326 16.5134L55.7265 16.4604C54.3505 22.911 51.8251 29.0511 48.2752 34.5772V34.5878ZM48.1952 29.4186C48.3655 29.012 48.522 28.6337 48.6541 28.2943C50.2512 24.1704 52.4591 20.3191 55.2014 16.874C55.242 16.8215 55.2874 16.7729 55.337 16.7291C54.9915 18.1625 54.2547 19.4981 53.5392 20.795L53.5255 20.8199L53.3899 21.0638C50.9049 25.5746 48.7334 30.2566 46.8913 35.0757C46.8152 34.8696 46.7729 34.6522 46.7661 34.4322C46.686 33.0876 47.4685 31.1853 48.1158 29.6117L48.1952 29.4186ZM42.8266 25.2288C44.0732 27.2314 44.9246 29.4614 45.3336 31.7946C43.3308 28.319 41.3558 24.7904 39.44 21.2618C40.73 22.4325 41.8681 23.7656 42.8266 25.2288ZM38.8836 20.7527C41.0081 24.6808 43.2126 28.6231 45.4483 32.4911C45.5109 32.8907 45.57 33.3008 45.6152 33.718C44.7887 32.162 43.8374 30.6778 42.771 29.2807C42.4233 28.7893 42.0756 28.3014 41.7279 27.8276C41.0588 26.8512 40.4605 25.7898 39.8835 24.7661L39.8835 24.7661L39.8155 24.6455L39.815 24.6446C39.4014 23.9094 38.9738 23.1496 38.522 22.4215C37.6493 21.0072 36.6479 19.6672 35.6639 18.3555C35.6639 18.3065 35.6756 18.2558 35.6874 18.2046L35.6874 18.2046C35.6926 18.1819 35.6979 18.1591 35.7021 18.1363C36.787 18.9848 37.8614 19.8405 38.8836 20.7527ZM35.6187 18.7055C36.5505 19.9465 37.4963 21.23 38.3238 22.5629C38.7289 23.2124 39.1115 23.8903 39.4844 24.5507L39.6138 24.7798L39.6769 24.8917C40.2554 25.9181 40.8556 26.9828 41.5366 27.9619C41.8635 28.4357 42.2146 28.9236 42.5797 29.4186C43.755 31.0486 44.958 32.7245 45.7091 34.4782C45.5572 34.5332 45.3974 34.5619 45.2362 34.563C43.8576 33.5502 42.5569 32.432 41.3454 31.2183C40.0047 29.9147 38.8359 28.4398 37.8683 26.8305C36.8252 25.0627 36.1472 23.0827 35.5005 21.1487C35.4677 20.3323 35.5073 19.5147 35.6187 18.7055ZM35.5422 22.1281C36.079 23.8086 36.7778 25.4311 37.6284 26.9719C38.6046 28.5988 39.7838 30.0903 41.1368 31.4092C42.2534 32.5291 43.4442 33.5698 44.7007 34.5242C44.3627 34.4411 44.0341 34.3226 43.7202 34.1706C39.1653 32.0563 36.0603 27.1876 35.5422 22.1281ZM58.3134 39.909C58.529 39.8135 58.7445 39.7251 58.9601 39.6367C58.369 40.4853 57.8683 41.3268 57.3885 42.1506C56.6855 43.4128 55.8868 44.6174 54.9998 45.7535L54.9465 45.8191L54.9465 45.8192C52.936 48.2985 50.8583 50.8606 48.4664 53.0405C48.0451 53.4403 47.5464 53.7461 47.0021 53.9385C46.4578 54.1309 45.88 54.2056 45.3057 54.1578C45.2951 54.0319 45.2951 53.9053 45.3057 53.7795C48.8603 48.4587 53.2555 43.772 58.3134 39.909ZM57.3329 45.4883C55.869 47.6804 54.2661 49.9751 52.2564 51.7924C50.9107 53.0087 48.8384 54.5361 46.6131 54.8861C46.029 54.9816 45.643 54.8861 45.4622 54.6457C45.4127 54.5778 45.3761 54.5011 45.3544 54.4194C45.9522 54.4575 46.5512 54.3712 47.115 54.1657C47.6788 53.9602 48.1954 53.6399 48.6333 53.2244C50.9748 51.0985 52.9944 48.616 54.9586 46.2018L55.191 45.9161C56.0848 44.7688 56.8893 43.5524 57.5971 42.2779C58.1395 41.3586 58.6959 40.4181 59.3809 39.4741C59.892 39.2761 60.424 39.0993 60.9316 38.9438C60.0832 41.2808 58.7446 43.374 57.3294 45.4883H57.3329ZM54.4434 42.0445C55.3594 41.4246 56.3154 40.8682 57.3051 40.3792C52.7198 44.0194 48.7014 48.3428 45.3857 53.2032C45.4999 52.7054 45.6727 52.2234 45.9003 51.7677C46.029 51.5131 46.1576 51.2621 46.2932 51.011C48.2623 47.4011 51.0565 44.3257 54.44 42.0445H54.4434ZM31.6375 53.8431C36.022 53.9379 40.1973 55.7683 43.2751 58.9451C43.2174 59.0775 43.1438 59.2022 43.0561 59.3163C42.312 58.9097 41.5888 58.4466 40.8864 57.9905C39.6103 57.1631 38.2891 56.311 36.8287 55.8125C33.675 54.7518 30.9907 54.4795 28.6576 55.0064C29.5844 54.5288 30.5485 54.1302 31.5401 53.8148C31.5531 53.8257 31.5681 53.8338 31.5842 53.8387C31.6003 53.8436 31.6173 53.8451 31.634 53.8431H31.6375ZM28.063 55.4165C30.497 54.6881 33.3447 54.8967 36.7557 56.0529C38.1882 56.5373 39.4921 57.3823 40.7578 58.2026L40.781 58.2176L40.7813 58.2178C41.4033 58.6197 42.0456 59.0347 42.7049 59.4083C40.6187 59.6204 38.5568 59.1714 36.7939 58.7011C33.7863 57.8951 30.8624 56.795 28.063 55.4165ZM42.232 60.0129C40.563 60.9251 37.6667 60.8508 36.321 60.3947C35.2757 59.992 34.2775 59.4726 33.3447 58.8461L28.9532 56.1307C31.4539 57.2962 34.0479 58.2425 36.707 58.9592C38.5116 59.4401 40.6187 59.8891 42.7362 59.6664C42.579 59.7943 42.4102 59.9068 42.232 60.0023V60.0129ZM37.6006 53.3693C39.0741 53.6921 40.4364 54.4085 41.5471 55.4448C42.8892 56.707 43.5742 57.9198 43.3725 58.6976C40.3825 55.6601 36.3935 53.8542 32.1729 53.6274C33.9363 53.106 35.7957 53.0139 37.6006 53.3587V53.3693ZM38.2251 38.8718C38.3131 38.9108 38.4024 38.9501 38.4927 38.9899C39.9989 39.6532 41.7868 40.4405 42.501 42C42.6989 42.4366 42.9088 42.7886 43.1125 43.13C43.6076 43.9603 44.0657 44.7286 44.2256 46.5C41.5 46 37.0743 44.4692 34.5 43C34.3489 42.9139 34.197 42.828 34.0447 42.742L34.0441 42.7417C32.4665 41.8507 30.8508 40.9382 29.7459 39.4309C29.6393 39.2866 29.5092 39.132 29.373 38.9702C28.861 38.3616 28.2626 37.6505 28.5014 37L33.2978 37.6563C34.9698 37.9146 36.6695 38.182 38.2251 38.8718ZM46.0002 64.5C47.671 65.6524 50.0002 59.5 50.0002 59.5C50.0002 59.5 50.5215 58.5357 50.5002 58.5C50.4572 58.4431 50.0752 58.766 49.8577 58.9498C49.7876 59.0091 49.7346 59.0539 49.7155 59.0669C49.0984 59.4973 44.2975 63.3238 46.0002 64.5Z" fill="#678EC9" fill-opacity="0.8"/>
</g>
<defs>
<clipPath id="clip0_132_1128">
<rect width="35" height="59" fill="white" transform="translate(27 15)"/>
</clipPath>
</defs>
</svg>
