<svg width="89" height="89" viewBox="0 0 89 89" fill="none" xmlns="http://www.w3.org/2000/svg">
<g clip-path="url(#clip0_132_1139)">
<path d="M70.9985 47.5999C67.4692 45.8479 63.566 44.9357 59.6074 44.9379C61.7504 43.842 64.109 43.2078 66.5242 43.0782C66.8109 43.0811 67.0945 43.0201 67.3535 42.8999C67.9507 42.5879 68.1828 41.8951 68.0501 40.9956C67.5028 37.7542 64.2849 35.1853 60.586 34.9746C57.5257 34.7883 54.1958 36.1415 51.4631 38.6455L51.3139 38.7914C52.2405 36.4799 53.3382 34.2374 54.5981 32.0817L54.7764 31.7738C55.6679 30.2057 56.6797 28.4351 56.3687 26.5065C56.3527 26.4216 56.3177 26.3412 56.2661 26.2711C56.2144 26.201 56.1475 26.143 56.0702 26.1013C55.9891 26.0614 55.8997 26.0406 55.8089 26.0406C55.7182 26.0406 55.6287 26.0614 55.5477 26.1013C51.9947 27.6812 48.8974 30.0964 46.5326 33.1311C46.5326 33.0014 46.5078 32.8758 46.4912 32.7259C46.3336 31.3443 46.147 29.9667 45.9397 28.5931C45.8716 27.8889 45.6735 27.2025 45.355 26.5672C45.2799 26.3936 45.1522 26.2467 44.9891 26.146C44.8261 26.0453 44.6354 25.9958 44.4427 26.0041C44.3142 26.0182 44.1898 26.057 44.0767 26.1181C43.9635 26.1793 43.8638 26.2617 43.7833 26.3606C42.9895 27.2127 42.3413 28.184 41.8634 29.2374L41.4487 28.4999C41.3991 28.4127 41.3272 28.3396 41.24 28.2877C41.1527 28.2359 41.0532 28.2071 40.9511 28.2042C40.8505 28.206 40.7517 28.2312 40.6631 28.2777C40.5744 28.3242 40.4983 28.3907 40.4411 28.4716C39.6221 29.7401 39.0408 31.1409 38.7243 32.6084C38.6041 32.418 38.4797 32.2316 38.3553 32.0452C37.0454 30.2066 35.6101 28.4563 34.0592 26.8063C33.8826 26.5784 33.628 26.4203 33.3418 26.3606C33.1976 26.3394 33.0503 26.3519 32.9119 26.3969C32.7735 26.442 32.648 26.5184 32.5456 26.6199C32.3887 26.8147 32.2789 27.0415 32.2243 27.2836C32.1697 27.5256 32.1719 27.7766 32.2305 28.0178C32.9479 31.6644 33.8477 35.7607 35.4276 39.6342C32.0397 36.8506 28.0879 34.7721 24.2978 32.8515C23.5804 32.4909 22.9998 32.4909 22.5851 32.8515C22.3491 33.0789 22.2024 33.3801 22.1705 33.7024C21.8802 35.6797 23.1035 37.4462 24.3392 38.9089C26.3545 41.3035 29.4314 43.9858 31.8034 45.9306C27.7976 44.8285 23.2237 44.4436 17.862 44.7596C16.2862 44.8528 15.3449 45.3715 15.0671 46.2993C14.6939 47.5432 15.7306 48.6534 17.8413 49.2693C20.4745 50.0391 22.9957 51.2951 25.4298 52.5107C27.1424 53.3656 28.9089 54.2448 30.7252 54.966C32.7093 55.7516 34.7639 56.3552 36.8624 56.7691C37.6758 56.9199 38.5018 56.9959 39.3297 56.996C41.1543 56.996 43.0618 56.611 43.7253 55.432C43.8079 55.2814 43.8693 55.1205 43.9078 54.9539C44.902 55.4623 46.012 55.716 47.1339 55.6913C47.4035 55.6913 47.6813 55.6913 47.9633 55.6548C50.2606 55.4522 52.4045 54.6095 54.4778 53.791C55.3735 53.4385 56.2982 53.0739 57.2147 52.77C62.0305 51.1976 67.2211 51.0888 72.1015 52.458C72.3918 52.539 73.1548 52.7578 73.6566 52.2311C73.8514 52.0166 73.9655 51.7436 73.98 51.4572C74.1418 50.0107 73.076 48.6412 70.9985 47.5999ZM72.7402 50.6793C69.8084 49.4394 66.2712 49.018 62.4603 49.4637C58.8278 49.9054 55.274 51.0844 51.9773 52.2676H51.9234C49.792 53.0414 47.5942 53.8315 45.4213 53.637C45.6918 53.563 45.9576 53.4738 46.2175 53.3696C48.4028 53.1508 51.0277 52.0001 53.7936 50.7887C56.3107 49.6785 58.9148 48.5359 61.1914 48.1348C62.7102 47.8844 64.2507 47.7826 65.7902 47.8309C67.2536 47.8055 68.7119 48.0065 70.1111 48.4265C70.2313 48.4792 70.3475 48.5318 70.4636 48.5926C71.2183 48.9897 72.4084 49.7311 72.7402 50.6793V50.6793ZM68.5643 47.7742C67.6475 47.6384 66.7216 47.5693 65.7943 47.5675C64.2367 47.5196 62.678 47.6241 61.1416 47.8795C58.8278 48.2847 56.207 49.4354 53.6775 50.5496C51.3512 51.5706 49.1161 52.5471 47.1961 52.9523C48.4671 52.2601 49.6816 51.4731 50.8287 50.5982L51.7534 49.9297C53.5614 48.6372 55.3943 47.3285 57.2893 46.2021C61.1224 45.8336 64.9898 46.3729 68.5643 47.7742V47.7742ZM52.2676 39.4883C54.7557 37.1991 57.7911 35.9592 60.5279 36.1253C63.6629 36.2996 66.4661 38.524 66.9222 41.186C66.9844 41.5628 66.9223 41.8424 66.831 41.891C66.7125 41.924 66.5892 41.9377 66.4661 41.9315C60.6607 42.1422 55.7675 45.6308 51.0526 49.0059L50.1196 49.6785C48.689 50.7279 45.3384 53.1711 43.8082 52.6038C43.6341 52.535 43.5843 52.4539 43.5636 52.3769C43.2816 51.4612 45.1394 48.9492 45.9355 47.8754C46.23 47.4703 46.4705 47.1502 46.6073 46.9314C48.2536 44.318 49.9537 41.6114 52.2676 39.4964V39.4883ZM41.0714 50.505C40.2286 49.0222 39.2022 47.6464 38.0152 46.4087C37.1859 45.5092 36.2736 44.6624 35.465 43.9169C31.791 40.5296 28.4155 37.4786 25.2266 34.5978C28.826 36.4454 32.4876 38.5159 35.5396 41.2306C38.857 44.2005 41.117 47.7134 41.9671 51.2708C41.6934 51.0156 41.3907 50.7644 41.088 50.5131L41.0714 50.505ZM54.7847 29.1806C53.1664 31.2488 51.7017 33.4275 50.4016 35.6999C48.3282 39.3465 46.6695 43.2605 45.0647 47.0732L44.9693 47.2029C44.5546 47.7377 44.1897 48.2644 43.8456 48.7749C44.1076 47.3422 44.4551 45.9258 44.8864 44.5327C46.0185 41.0158 48.0836 37.7947 50.1403 34.8369C51.7742 32.495 53.5033 30.1693 55.1869 27.9124C55.1073 28.3505 54.978 28.7786 54.8013 29.1887L54.7847 29.1806ZM53.5407 31.5306C52.052 34.1602 50.2481 37.5799 49.3939 40.797C48.1069 42.4034 46.9281 44.0898 45.865 45.8455C47.2496 42.4219 48.8406 39.0814 50.6296 35.8417C51.6747 34.0076 52.8294 32.2352 54.088 30.5339L53.7024 31.2187L53.5407 31.5306ZM55.0335 27.5883C53.3084 29.8978 51.5378 32.2762 49.8708 34.6708C47.7974 37.6488 45.724 40.8902 44.5754 44.4436C44.0852 46.0822 43.6947 47.7477 43.406 49.4313C43.2194 49.7312 43.0535 50.0229 42.9042 50.3065C42.8296 50.0391 42.7425 49.7717 42.6513 49.4961C42.6596 49.4438 42.6596 49.3905 42.6513 49.3381C42.4328 45.865 42.9991 42.3874 44.31 39.152V39.152C44.7438 38.0883 45.258 37.0577 45.8484 36.0686C48.0313 32.4505 51.2208 29.5124 55.0459 27.5964L55.0335 27.5883ZM44.4137 27.3573C44.5823 27.8099 44.6951 28.2806 44.7496 28.7593C44.9569 30.1098 45.1393 31.4739 45.2969 32.8515C45.4141 33.485 45.4029 34.1348 45.2638 34.764C45.2595 34.799 45.2595 34.8343 45.2638 34.8693C45.1352 35.0719 45.0025 35.2745 44.8781 35.4892C44.7537 35.704 44.621 35.9268 44.4966 36.1456C44.3856 35.2167 44.1715 34.3024 43.858 33.4188C43.5033 32.4371 43.0751 31.4824 42.5767 30.5623C42.9883 29.3919 43.6213 28.3075 44.4427 27.3654L44.4137 27.3573ZM42.755 33.7915C43.3644 35.3702 43.5388 37.0776 43.2608 38.7428C42.8846 39.6768 42.5662 40.632 42.3071 41.6033C42.1744 40.9267 42.0127 40.25 41.8261 39.5775C41.8604 38.3097 41.7097 37.0436 41.3783 35.8174C41.2953 35.4406 41.2124 35.0638 41.1419 34.6829C40.8623 33.192 40.7455 31.6762 40.7935 30.1612C40.835 30.0842 40.8723 30.0072 40.9097 29.9302C41.6416 31.1649 42.2618 32.4596 42.7633 33.7996L42.755 33.7915ZM40.4908 30.8338C40.4879 32.1453 40.6101 33.4543 40.8558 34.7437C40.9263 35.1246 41.0092 35.5054 41.0921 35.8863C41.3118 36.7856 41.4616 37.6998 41.54 38.6212C41.0483 37.0902 40.4139 35.6064 39.6449 34.1886C39.7589 33.0379 40.0468 31.9101 40.4991 30.8419L40.4908 30.8338ZM33.3667 27.7828C34.8052 29.3263 36.1392 30.96 37.36 32.6732C37.7747 33.2607 38.1314 33.8888 38.4797 34.4965C38.5038 34.5756 38.5447 34.6488 38.5999 34.7113C40.4069 38.0436 41.4272 41.7291 41.5856 45.4971C41.5856 45.4971 41.5856 45.4971 41.5856 45.5173C41.54 45.9549 41.5068 46.3925 41.4902 46.826C40.4461 44.905 39.1265 43.1395 37.5715 41.5831C35.3198 37.1626 34.2168 32.1465 33.3584 27.8071L33.3667 27.7828ZM23.344 33.7227C23.4898 33.7455 23.6302 33.7935 23.7587 33.8645L24.2314 34.1035C27.6815 37.1707 31.2809 40.4486 35.2825 44.1235C36.1118 44.869 37.0034 45.7077 37.8203 46.5991C38.8196 47.6496 39.7087 48.7952 40.4742 50.0188C40.0596 49.7028 39.6449 49.407 39.2054 49.1315C38.9856 48.9005 38.7658 48.6655 38.5543 48.4305C38.3428 48.1955 38.1396 47.9484 37.8991 47.7174C36.879 46.6437 35.7552 45.6915 34.6688 44.7272L29.0417 39.8651C26.9683 38.0742 24.8327 36.2185 23.3482 33.8888C23.3399 33.7915 23.3523 33.747 23.3523 33.7308L23.344 33.7227ZM25.2308 38.1796C24.2729 37.041 23.3192 35.7121 23.2943 34.3426C24.7871 36.567 26.8397 38.3538 28.8343 40.0799L34.4614 44.942C35.5438 45.882 36.6634 46.8463 37.671 47.9119L38.2806 48.5764C37.2362 47.9755 36.1482 47.4501 35.0254 47.0043C32.9645 45.4201 28.034 41.498 25.2391 38.1836L25.2308 38.1796ZM17.9325 45.9063C19.1268 45.8374 20.2796 45.8009 21.3992 45.8009C25.1922 45.739 28.9713 46.2655 32.5954 47.3609C35.1913 48.1712 38.8612 49.7636 41.5939 52.5593C41.9397 52.902 42.2418 53.2842 42.4937 53.6978C42.5135 53.7826 42.5533 53.8617 42.6098 53.9288V53.9288C42.6967 54.112 42.7446 54.3104 42.7508 54.5122C42.2575 54.4866 41.7749 54.3625 41.3326 54.1476C40.4454 53.7338 39.5828 53.2712 38.7492 52.7619C36.7445 51.3682 34.3923 50.5283 31.9402 50.3308L31.5546 50.2781C28.4735 49.8486 25.3718 49.2247 22.3778 48.621C21.0784 48.3922 19.7979 48.0712 18.5462 47.6607C17.8661 47.4135 16.929 47.0003 16.4728 46.2304C16.9276 46.0069 17.4319 45.8969 17.9408 45.9104L17.9325 45.9063ZM37.0905 55.6305C35.0658 55.2315 33.0835 54.6496 31.169 53.8923C29.3983 53.1873 27.6525 52.3162 25.9648 51.4612C23.4767 50.2214 20.914 48.941 18.173 48.1428C17.9449 48.074 15.9338 47.4622 16.195 46.591C16.212 46.5369 16.2387 46.4862 16.2738 46.4411C16.7963 47.2515 17.7667 47.681 18.4757 47.9322C19.7396 48.3485 21.0326 48.6748 22.3446 48.9086C25.3469 49.5083 28.4486 50.1242 31.5421 50.5658L31.9278 50.6185C32.9991 50.7354 34.0579 50.9441 35.0918 51.2425C36.3312 51.6967 37.516 52.2823 38.6248 52.9888C39.4693 53.5073 40.3444 53.9768 41.2455 54.3947C41.7059 54.6226 42.2074 54.7602 42.7218 54.7999C42.7154 54.8222 42.7071 54.8438 42.6969 54.8647C42.191 55.7764 39.5827 56.1329 37.0988 55.6467L37.0905 55.6305ZM72.8148 51.3316C72.8122 51.3586 72.8122 51.3857 72.8148 51.4126C72.6894 51.4042 72.5654 51.3811 72.4457 51.3437C67.3345 49.9067 61.897 50.0212 56.8539 51.6719C55.9043 51.988 54.963 52.3567 54.0507 52.7173C51.9773 53.5277 49.9952 54.3137 47.872 54.5001C47.1339 54.5649 45.5167 54.5851 44.2934 53.8194H44.5215C45.0432 53.9306 45.5757 53.9864 46.1097 53.9855C48.1043 53.9855 50.0905 53.2643 52.0229 52.5674L52.0768 52.5471C55.3569 51.36 58.89 50.2011 62.4935 49.7636C66.3334 49.2935 69.8954 49.7352 72.8106 51.0196C72.8255 51.1284 72.8297 51.2383 72.8231 51.3478L72.8148 51.3316Z" fill="#678EC9" fill-opacity="0.8"/>
</g>
<defs>
<clipPath id="clip0_132_1139">
<rect width="59" height="31" fill="white" transform="translate(15 26)"/>
</clipPath>
</defs>
</svg>
