<svg width="89" height="89" viewBox="0 0 89 89" fill="none" xmlns="http://www.w3.org/2000/svg">
<g clip-path="url(#clip0_132_1146)">
<path d="M39.8757 59.5042C41.6487 58.7552 43.2492 57.4883 44.8009 56.267C45.1978 55.9413 45.5882 55.6416 45.9753 55.3485C48.2525 53.6127 51.3071 51.6097 54.2544 49.6719C60.5589 45.526 66.5153 41.6113 66.9902 39.2306C67.0074 39.1432 66.999 39.0528 66.9661 38.9701C66.9332 38.8874 66.8771 38.8159 66.8046 38.7643C66.7322 38.7128 66.6464 38.6832 66.5576 38.6793C66.4687 38.6753 66.3806 38.6971 66.3039 38.742C63.7307 40.2662 60.7736 41.1423 57.8881 41.9989C54.635 42.9564 51.2583 43.9529 48.3891 45.907C46.2551 47.3563 44.3 49.4179 42.4132 52.2057C42.2798 52.4044 42.0878 52.6584 41.8894 52.9483C41.1942 53.8806 40.5524 54.8516 39.9668 55.8566C40.097 53.4314 40.2943 51.0962 40.5589 48.8512C40.5248 49.2652 40.5248 49.6813 40.5589 50.0953C40.565 50.174 40.5912 50.2498 40.6351 50.3154C40.679 50.381 40.739 50.4342 40.8094 50.4698C40.8733 50.5046 40.9449 50.5225 41.0176 50.5219C41.1027 50.5224 41.1862 50.4987 41.2583 50.4536C45.9623 47.5778 49.7163 40.061 52.1985 35.0553C53.3566 32.7332 54.3878 30.2222 54.095 27.607C54.0843 27.5164 54.0471 27.4309 53.9881 27.3614C53.929 27.2919 53.8508 27.2414 53.7631 27.2164C53.6755 27.1913 53.5824 27.1927 53.4956 27.2205C53.4088 27.2483 53.3321 27.3012 53.2752 27.3725C50.262 31.2005 47.4508 35.1836 44.853 39.3055L44.5569 39.7744C43.0345 42.1812 41.0469 45.3371 40.624 48.4017C41.1888 43.5512 42.2027 38.7637 43.6526 34.1011C43.8096 34.1862 43.9848 34.232 44.1633 34.2346H44.2284C44.3931 34.2251 44.5533 34.1772 44.6963 34.0946C44.8392 34.0121 44.9608 33.8972 45.0514 33.7591C47.3644 30.2287 48.2037 24.64 48.8185 20.5853L48.9031 20.0284C48.9171 19.9664 48.9183 19.9023 48.9065 19.8399C48.8947 19.7775 48.8702 19.7182 48.8345 19.6657C48.7988 19.6132 48.7528 19.5686 48.6991 19.5348C48.6455 19.5009 48.5854 19.4784 48.5227 19.4688C48.46 19.4591 48.3961 19.4625 48.3347 19.4787C48.2734 19.4949 48.2161 19.5236 48.1663 19.563C48.1165 19.6023 48.0754 19.6515 48.0454 19.7075C48.0155 19.7635 47.9973 19.825 47.9922 19.8883C47.8881 20.5397 47.0553 22.0248 46.1705 23.5783C44.2869 26.897 41.9837 30.9517 42.9597 33.2413C42.4587 34.7611 42.0055 36.3374 41.5999 37.9702C41.3234 34.5831 40.0612 30.8052 39.0169 27.6754L38.8803 27.2683C37.039 21.7317 34.3585 17.3317 30.9167 14.1466C30.842 14.0758 30.7458 14.0322 30.6434 14.0228C30.5409 14.0134 30.4383 14.0387 30.352 14.0947C30.2657 14.1507 30.2007 14.234 30.1675 14.3315C30.1342 14.4289 30.1346 14.5346 30.1685 14.6318C31.2681 17.9375 31.8666 21.4483 32.4457 24.8484C33.1711 29.1181 33.9258 33.5311 35.6793 37.6282C36.164 38.7616 38.3566 42.559 40.1197 42.559C40.194 42.558 40.268 42.5504 40.341 42.5362C40.4366 42.5161 40.5295 42.4844 40.6175 42.4418C40.0547 45.412 39.6415 48.5353 39.339 51.8377C38.679 50.1215 37.9186 48.4456 37.0618 46.8189C36.9187 46.5421 36.8048 46.3174 36.7365 46.1676C35.65 43.9399 34.2577 41.3866 32.1627 39.3283C30.7346 37.9246 29.0462 36.8205 27.4131 35.7458C25.7801 34.671 24.1764 33.6321 22.8166 32.3C22.7475 32.2338 22.6595 32.1907 22.565 32.1767C22.4704 32.1626 22.3738 32.1783 22.2884 32.2215C22.2031 32.2648 22.1333 32.3334 22.0886 32.4181C22.044 32.5028 22.0267 32.5992 22.0391 32.6941C22.5205 36.2017 23.8673 37.9636 25.1685 39.6702C25.9428 40.6896 26.678 41.6504 27.192 42.9498C28.3329 45.8696 29.8828 48.6122 31.7951 51.0951C31.8374 51.1505 35.5231 55.8012 38.2427 55.8012C38.5223 55.8022 38.7991 55.7456 39.056 55.6351C39.0137 56.407 38.9746 57.1821 38.9454 57.9735C38.7339 63.813 38.9454 70.4992 42.2896 75.7916C42.331 75.8577 42.3886 75.9121 42.4569 75.9497C42.5252 75.9873 42.602 76.0068 42.6799 76.0065C42.766 76.0066 42.8504 75.9829 42.9239 75.9381C42.9772 75.9059 43.0235 75.8632 43.0599 75.8126C43.0964 75.762 43.1222 75.7046 43.1359 75.6437C43.1495 75.5829 43.1508 75.5199 43.1395 75.4585C43.1282 75.3972 43.1047 75.3388 43.0703 75.2868C40.1425 70.6523 39.7228 64.8259 39.8172 59.5108L39.8757 59.5042ZM41.4567 49.1671L41.5316 49.1215L41.4535 49.1801L41.4567 49.1671ZM51.3461 34.6515C49.1991 38.9668 45.6858 46.0145 41.5478 49.1085L41.6227 49.0433C44.4142 45.8833 46.7649 42.3588 48.6103 38.5662C48.838 38.0972 49.056 37.6217 49.2772 37.1494C49.6708 36.3092 50.0742 35.4364 50.5198 34.6059C50.7378 34.1923 50.972 33.7852 51.2062 33.3748C51.987 32.0037 52.7872 30.5902 53.1191 29.0335L53.1971 28.9325C53.0865 30.9029 52.2635 32.8146 51.3461 34.6515ZM45.3247 40.2467L45.6207 39.7777C47.8328 36.2636 50.2336 32.8179 52.7775 29.5057C52.3432 30.8229 51.7534 32.0835 51.0208 33.2608C50.7834 33.6712 50.5491 34.0815 50.3279 34.4984C49.879 35.3354 49.4756 36.2082 49.082 37.0517C48.8651 37.5251 48.6483 37.9962 48.4314 38.4652C46.6039 42.2231 44.2763 45.7157 41.5121 48.8479C41.7593 45.8842 43.7892 42.673 45.3247 40.2467ZM38.1288 27.9424C39.3195 31.5021 40.8029 35.9379 40.7313 39.5237C40.7085 40.5007 40.5687 41.0837 40.406 41.3703L37.9792 36.8596C37.5075 35.9835 37.0033 35.0781 36.6194 34.1434C35.5166 31.5803 35.0514 28.7664 34.5992 26.047C34.3276 24.189 33.9551 22.3473 33.4834 20.5299C33.1166 19.2061 32.6456 17.9134 32.0748 16.6641C34.5537 19.5301 36.5478 23.1777 38.0052 27.5353L38.1288 27.9424ZM36.5023 37.2374C34.7912 33.2413 34.0495 28.8836 33.3305 24.6661C32.8588 21.8978 32.3741 19.0513 31.6129 16.2863C32.282 17.6701 32.8264 19.111 33.2394 20.5918C33.706 22.4025 34.0774 24.2364 34.352 26.0861C34.8042 28.8185 35.2694 31.6454 36.3819 34.2281C36.7886 35.1693 37.2798 36.0812 37.7547 36.9638L40.2271 41.5592C40.2016 41.5774 40.1729 41.5907 40.1425 41.5983C39.3682 41.7709 37.3416 39.1719 36.5121 37.2374H36.5023ZM53.7437 48.9C50.7834 50.8541 47.7222 52.8603 45.4158 54.6125C45.0221 54.9121 44.6285 55.2248 44.2251 55.5407C42.8686 56.6122 41.4665 57.7195 39.9961 58.4393C39.9929 58.3959 39.9929 58.3524 39.9961 58.309C40.0646 58.2538 40.1363 58.2027 40.2108 58.1559L40.3214 58.081C41.5223 57.1618 42.6186 56.1133 43.5908 54.9545C43.8022 54.72 44.0137 54.4855 44.2414 54.2543C49.0046 49.0973 54.816 45.0217 61.2844 42.3017L61.5446 42.191C62.4113 41.8727 63.2344 41.446 63.9942 40.9208C64.4529 40.7287 64.905 40.53 65.3507 40.3118C63.4607 42.5134 58.3533 45.8842 53.7469 48.9H53.7437ZM58.1451 42.8717C59.6513 42.4287 61.1867 41.9761 62.6832 41.4256C62.2798 41.6243 61.8634 41.8002 61.4535 41.9695L61.1933 42.077C54.6888 44.8126 48.8452 48.9115 44.056 54.0979C43.8413 54.3291 43.6298 54.5636 43.4053 54.7981C42.4714 55.9047 41.4272 56.913 40.2889 57.8074C44.4588 51.8325 49.9521 46.9036 56.3396 43.4058C56.949 43.2234 57.552 43.0454 58.1484 42.8717H58.1451ZM42.6409 53.4661C42.8588 53.1665 43.0475 52.9059 43.1842 52.7007C45.0026 50.0106 46.8764 48.0305 48.9161 46.6463C50.8452 45.3436 53.0443 44.4708 55.2889 43.7445C49.284 47.2195 44.1136 51.9711 40.1425 57.6641C40.5784 56.306 41.9447 54.4236 42.6409 53.4661ZM44.2674 33.2282C44.2559 33.2463 44.24 33.2611 44.2213 33.2714C44.2025 33.2816 44.1815 33.2869 44.1601 33.2869C44.1407 33.2899 44.1209 33.2899 44.1015 33.2869C44.9337 31.3416 45.6677 29.3557 46.3006 27.3367L47.2082 24.5944C46.6227 27.6884 45.7638 30.942 44.2674 33.2282ZM46.9577 24.0115C47.1269 23.7151 47.283 23.4317 47.4392 23.1582L46.0762 27.2715C45.4255 29.2093 44.7749 31.2058 43.9258 33.098C42.7775 31.3751 45.2824 26.9589 46.9577 24.0115ZM31.4795 39.9536C33.4769 41.9077 34.8204 44.3828 35.8744 46.5421C35.9525 46.7017 36.0696 46.9297 36.1997 47.213C38.6038 51.9191 39.0365 53.6811 38.9909 54.3357C38.7665 53.9449 38.5322 53.554 38.298 53.173C37.9727 52.6389 37.6246 52.0852 37.3221 51.5446C36.691 50.3493 36.0208 49.115 35.3117 47.9328C33.9303 45.7586 32.417 43.6714 30.7801 41.6829C29.3032 39.82 27.8003 37.9636 26.3006 36.1463L26.8471 36.5046C28.4671 37.537 30.1197 38.615 31.4795 39.9536ZM38.8673 54.6776C38.8345 54.7003 38.7996 54.7199 38.7632 54.7363C38.315 54.5736 37.92 54.2908 37.6213 53.9188C34.2641 50.3363 31.4925 46.2588 28.7144 42.0575C27.0032 39.4683 25.2987 36.8466 23.6233 34.2216C24.2739 34.7394 24.9701 35.2247 25.663 35.6904C27.3253 37.7031 28.9909 39.7582 30.6272 41.8197C32.2645 43.8033 33.7779 45.8862 35.1588 48.0565C35.8777 49.229 36.5316 50.4601 37.1627 51.639C37.4522 52.1862 37.8133 52.7431 38.1386 53.2674C38.4086 53.7104 38.6851 54.1631 38.9389 54.6125C38.9184 54.6377 38.8943 54.6596 38.8673 54.6776ZM32.5238 50.5154C30.6503 48.1 29.1279 45.4312 28.002 42.5883C27.4591 41.3235 26.7359 40.1442 25.8549 39.0873C24.8205 37.7292 23.7534 36.332 23.1776 33.9708C24.9278 36.713 26.717 39.4748 28.5127 42.191C31.2973 46.4021 34.0755 50.4796 37.4424 54.0849C37.7114 54.395 38.033 54.6552 38.3923 54.8535C36.7853 55.0456 33.838 52.222 32.5238 50.5219V50.5154Z" fill="#678EC9" fill-opacity="0.8"/>
<path d="M42.6399 29.5415C42.7188 29.5416 42.7971 29.5272 42.8709 29.4992C43.3914 29.3005 43.4239 28.6101 43.3849 27.9652C43.263 26.5367 43.0136 25.1219 42.6399 23.7379C42.2305 22.0816 41.7066 20.4558 41.0719 18.8722C40.7076 17.9603 40.1383 17.9701 39.9073 18.0189C39.819 18.0365 39.7378 18.0799 39.6741 18.1437C39.6104 18.2075 39.567 18.2887 39.5495 18.3772C39.3759 19.4543 39.3518 20.5503 39.4779 21.634C39.6698 24.132 39.9919 26.7374 41.5827 28.7566C41.7551 29.0172 42.1682 29.5415 42.6399 29.5415ZM40.3139 19.5268C40.8821 20.9759 41.3537 22.4609 41.7258 23.9724C42.0908 25.2973 42.3379 26.652 42.4642 28.0206C42.4642 28.19 42.4642 28.3235 42.4642 28.4244C42.4122 28.3658 42.3504 28.2942 42.2788 28.203C40.8507 26.3857 40.5547 23.9333 40.3693 21.5786C40.3075 20.8965 40.2901 20.2112 40.3172 19.5268H40.3139Z" fill="#678EC9" fill-opacity="0.8"/>
</g>
<defs>
<clipPath id="clip0_132_1146">
<rect width="45" height="62" fill="white" transform="translate(22 14)"/>
</clipPath>
</defs>
</svg>
