<svg width="48" height="48" viewBox="0 0 48 48" fill="none" xmlns="http://www.w3.org/2000/svg">
<path d="M34.0409 29.5271L33.9144 29.2768C33.5605 28.4512 29.2124 27.2002 28.8584 27.1752L28.5803 27.2001C28.0494 27.3001 27.468 27.7756 26.3304 28.7514C26.103 28.9515 25.7995 29.0016 25.5214 28.8514C24.0299 28.0257 22.2098 26.3743 21.2996 25.3735C20.3137 24.2977 19.1256 22.5212 18.5694 21.095C18.4684 20.8197 18.5694 20.5195 18.7717 20.3194C20.0609 19.1683 20.6171 18.6181 20.6677 18.0175C20.6929 17.6672 19.9346 13.2386 19.1508 12.8132L18.9233 12.6632C18.4178 12.3378 17.6593 11.8624 16.8251 12.0376C16.6228 12.0877 16.4206 12.1628 16.2437 12.2628C15.6877 12.6134 14.2973 13.5642 13.6653 14.7901C13.2861 15.5657 13.1091 22.5965 18.4179 28.5263C23.6761 34.4061 30.173 34.6563 31.1337 34.4561H31.1589L31.2347 34.4312C32.5493 33.9557 33.6617 32.7299 34.0914 32.2044C34.875 31.2787 34.3443 30.1526 34.0408 29.5271L34.0409 29.5271Z" fill="white"/>
</svg>
